<?xml version="1.0" encoding="UTF-8"?>
<svg width="1024" height="1024" version="1.1" viewBox="0 0 1024 1024" xmlns="http://www.w3.org/2000/svg"><g fill="#6a5fbb"><path d="m657.40111 834.69033 100.33946 57.91276v-115.88951l-100.38212-57.89143v115.88951zm-43.1946 24.91422 143.55539 82.82698v81.50447l-214.1599-123.56855v-247.22243l70.60451 40.74158v165.73928zm153.79411-216.50627-100.31813 57.97675 100.31813 57.93409 100.3608-57.95542-100.3608-57.93409zm0-49.76445 120.7316 69.85794 70.6045-40.74158-191.3361-110.45019-213.8826 123.50456 70.54051 40.67758zm153.7514 266.27072v-84.21347l-43.1519 24.89288v34.4277l-100.33945 57.91276v0.10666-115.95351l214.13855-123.56855v247.17976l-214.15988 123.61122v-81.41916l143.51268-82.93363z" stroke-width="21.3306675"/><g transform="matrix(252.71471,0,0,252.71471,0,7e-5)"><path transform="matrix(.004 0 0 -.004 1.3162 .03999969)" d="m0 0c0-198 209-335 209-533 0-71-16-141-42-207-5-8-12-12-19-12-13 0-26 11-23 27 26 61 42 126 42 192 0 104-95 208-167 283h-16v250z"/><rect transform="translate(1.2512,1.9999997)" x="-.064999998" y="-2" width=".13" height="3.3122001" ry=".039999999"/><a transform="translate(-94.8335,-6.3453003)"><path transform="matrix(.004 0 0 -.004 94.8335 9.8453)" d="m220 138c56 0 109-29 109-91 0-72-56-121-103-149-36-21-76-36-117-36-56 0-109 29-109 91 0 72 56 121 103 149 36 21 76 36 117 36z" fill="#6a5fbb"/></a></g></g></svg>
