<?xml version="1.0" encoding="UTF-8"?>
<svg width="1024" height="1024" version="1.1" viewBox="0 0 1024 1024" xmlns="http://www.w3.org/2000/svg"><g fill="#6a5fbb" stroke="#6a5fbb"><circle cx="192.10001" cy="319.89999" r="128" stroke-width=".2"/><path d="m192.0957 192.0957-0.0957 255.9043 639.9043-0.0957v-255.8086h-639.8086zm260.62305 50.10742c39.89583 0 79.79167 2e-5 119.6875 0v27.625c-25.87176 31.82345-51.7449 63.64574-77.61719 95.46876h79.67969v32.5c-41.64583-1e-5 -83.29167 0-124.9375 0v-28.07813c25.61187-31.67196 51.22398-63.34373 76.83594-95.01563h-73.64844v-30.5-1-1z" stroke-width=".19257371"/><circle cx="832.09998" cy="319.89999" r="128" stroke-width=".2"/><path d="m192.09961 575.90039a128 128 0 0 0-128.000001 128 128 128 0 0 0 127.998051 128v0.00195h639.80468v-0.01172a128 128 0 0 0 0.19727 0.00977 128 128 0 0 0 128-128 128 128 0 0 0-128-128 128 128 0 0 0-5.57617 0.19727h-630.47656a128 128 0 0 0-3.94727-0.19727zm641.88867 12.07031c17.25921 0.25601 34.14895 4.51347 49.71875 12.20313 43.62014 20.28127 69.47099 70.69569 63.5918 117.7539-5.07679 51.50745-50.64221 96.39816-102.58008 101.31836-207.17402 1.4376-414.37285 0.30541-621.55664 0.64063-24.58434 1.03541-49.97103 1.09628-73.32617-8.10938-46.33306-16.76111-76.685321-66.32797-73.527346-114.89648 1.767518-54.1473 48.639776-102.92088 102.261716-108.15234 217.20586-1.49071 434.6599-0.09769 651.96094-0.75586 1.15361-0.01868 2.30642-0.01902 3.45703-0.00196z" stroke-width=".2"/><rect x="192.09814" y="752.09814" width="639.80377" height="15.803735" stroke-width=".19626492"/></g></svg>
